<?xml version="1.0" encoding="UTF-8" standalone="no"?>
<!-- Created with Inkscape (http://www.inkscape.org/) -->

<svg
   inkscape:export-ydpi="150"
   inkscape:export-xdpi="150"
   inkscape:export-filename="van_kampen.png"
   width="420mm"
   height="297mm"
   viewBox="0 0 420 297"
   version="1.1"
   id="svg22210"
   sodipodi:docname="van_kampen.svg"
   inkscape:version="1.2 (dc2aedaf03, 2022-05-15)"
   xmlns:inkscape="http://www.inkscape.org/namespaces/inkscape"
   xmlns:sodipodi="http://sodipodi.sourceforge.net/DTD/sodipodi-0.dtd"
   xmlns="http://www.w3.org/2000/svg"
   xmlns:svg="http://www.w3.org/2000/svg"
   xmlns:ns3="http://www.iki.fi/pav/software/textext/">
  <sodipodi:namedview
     id="namedview22212"
     pagecolor="#ffffff"
     bordercolor="#666666"
     borderopacity="1.0"
     inkscape:showpageshadow="2"
     inkscape:pageopacity="0.0"
     inkscape:pagecheckerboard="0"
     inkscape:deskcolor="#d1d1d1"
     inkscape:document-units="mm"
     showgrid="true"
     inkscape:zoom="3.3447243"
     inkscape:cx="313.32926"
     inkscape:cy="169.5207"
     inkscape:window-width="1904"
     inkscape:window-height="1040"
     inkscape:window-x="6"
     inkscape:window-y="30"
     inkscape:window-maximized="1"
     inkscape:current-layer="g53770">
    <inkscape:grid
       type="xygrid"
       id="grid22728"
       originx="0"
       originy="0" />
  </sodipodi:namedview>
  <defs
     id="defs22207">
    <marker
       style="overflow:visible"
       id="marker44125"
       refX="69.674026"
       refY="35.490517"
       orient="112.99625397"
       inkscape:stockid="TriangleStart"
       markerWidth="5.3244081"
       markerHeight="6.155385"
       viewBox="0 0 5.3244081 6.1553851"
       inkscape:isstock="true"
       inkscape:collect="always"
       preserveAspectRatio="xMidYMid">
      <path
         transform="scale(0.5)"
         style="fill:context-stroke;fill-rule:evenodd;stroke:context-stroke;stroke-width:1pt"
         d="M 5.77,0 -2.88,5 V -5 Z"
         id="path44123" />
    </marker>
    <marker
       style="overflow:visible"
       id="marker39215"
       refX="81.777359"
       refY="39.431999"
       orient="65.78382874"
       inkscape:stockid="TriangleStart"
       markerWidth="5.3244081"
       markerHeight="6.155385"
       viewBox="0 0 5.3244081 6.1553851"
       inkscape:isstock="true"
       inkscape:collect="always"
       preserveAspectRatio="xMidYMid">
      <path
         transform="scale(0.5)"
         style="fill:context-stroke;fill-rule:evenodd;stroke:context-stroke;stroke-width:1pt"
         d="M 5.77,0 -2.88,5 V -5 Z"
         id="path39213" />
    </marker>
    <marker
       style="overflow:visible"
       id="marker35233"
       refX="78.323837"
       refY="-45.215382"
       orient="-151.54771423"
       inkscape:stockid="TriangleStart"
       markerWidth="5.3244081"
       markerHeight="6.155385"
       viewBox="0 0 5.3244081 6.1553851"
       inkscape:isstock="true"
       inkscape:collect="always"
       preserveAspectRatio="xMidYMid">
      <path
         transform="scale(0.5)"
         style="fill:context-stroke;fill-rule:evenodd;stroke:context-stroke;stroke-width:1pt"
         d="M 5.77,0 -2.88,5 V -5 Z"
         id="path35231" />
    </marker>
    <marker
       style="overflow:visible"
       id="marker31493"
       refX="72.381699"
       refY="-35.723579"
       orient="157.0965271"
       inkscape:stockid="TriangleStart"
       markerWidth="5.3244081"
       markerHeight="6.155385"
       viewBox="0 0 5.3244081 6.1553851"
       inkscape:isstock="true"
       inkscape:collect="always"
       preserveAspectRatio="xMidYMid">
      <path
         transform="scale(0.5)"
         style="fill:context-stroke;fill-rule:evenodd;stroke:context-stroke;stroke-width:1pt"
         d="M 5.77,0 -2.88,5 V -5 Z"
         id="path31491" />
    </marker>
    <marker
       style="overflow:visible"
       id="marker28997"
       refX="70.432396"
       refY="38.976665"
       orient="-69.79751587"
       inkscape:stockid="TriangleStart"
       markerWidth="5.3244081"
       markerHeight="6.155385"
       viewBox="0 0 5.3244081 6.1553851"
       inkscape:isstock="true"
       inkscape:collect="always"
       preserveAspectRatio="xMidYMid">
      <path
         transform="scale(0.5)"
         style="fill:context-stroke;fill-rule:evenodd;stroke:context-stroke;stroke-width:1pt"
         d="M 5.77,0 -2.88,5 V -5 Z"
         id="path28995" />
    </marker>
    <marker
       style="overflow:visible"
       id="marker26851"
       refX="78.984726"
       refY="42.348381"
       orient="243.66496277"
       inkscape:stockid="TriangleStart"
       markerWidth="5.3244081"
       markerHeight="6.155385"
       viewBox="0 0 5.3244081 6.1553851"
       inkscape:isstock="true"
       inkscape:collect="always"
       preserveAspectRatio="xMidYMid">
      <path
         transform="scale(0.5)"
         style="fill:context-stroke;fill-rule:evenodd;stroke:context-stroke;stroke-width:1pt"
         d="M 5.77,0 -2.88,5 V -5 Z"
         id="path26849" />
    </marker>
    <marker
       style="overflow:visible"
       id="marker25425"
       refX="71.718781"
       refY="-34.586613"
       orient="380.86172485"
       inkscape:stockid="TriangleStart"
       markerWidth="5.3244081"
       markerHeight="6.155385"
       viewBox="0 0 5.3244081 6.1553851"
       inkscape:isstock="true"
       inkscape:collect="always"
       preserveAspectRatio="xMidYMid">
      <path
         transform="scale(0.5)"
         style="fill:context-stroke;fill-rule:evenodd;stroke:context-stroke;stroke-width:1pt"
         d="M 5.77,0 -2.88,5 V -5 Z"
         id="path25423" />
    </marker>
    <marker
       style="overflow:visible"
       id="TriangleStart"
       refX="61.095371"
       refY="-21.067827"
       orient="-35.83399963"
       inkscape:stockid="TriangleStart"
       markerWidth="5.3244081"
       markerHeight="6.155385"
       viewBox="0 0 5.3244081 6.1553851"
       inkscape:isstock="true"
       inkscape:collect="always"
       preserveAspectRatio="xMidYMid">
      <path
         transform="scale(0.5)"
         style="fill:context-stroke;fill-rule:evenodd;stroke:context-stroke;stroke-width:1pt"
         d="M 5.77,0 -2.88,5 V -5 Z"
         id="path135" />
    </marker>
    <clipPath
       id="clip-0">
      <path
         clip-rule="nonzero"
         d="m 11,0 h 5 v 9.964844 h -5 z m 0,0"
         id="path18" />
    </clipPath>
    <clipPath
       id="clip-1">
      <path
         clip-rule="nonzero"
         d="m 16,0 h 4.980469 V 8 H 16 Z m 0,0"
         id="path21" />
    </clipPath>
    <clipPath
       id="clipPath23239">
      <path
         clip-rule="nonzero"
         d="m 6,0 h 5 V 9.964844 H 6 Z m 0,0"
         id="path15" />
    </clipPath>
    <clipPath
       id="clipPath23356">
      <path
         clip-rule="nonzero"
         d="m 6,0 h 5 V 9.964844 H 6 Z m 0,0"
         id="path23354" />
    </clipPath>
    <clipPath
       id="clipPath23477">
      <path
         clip-rule="nonzero"
         d="m 6,0 h 5 V 9.964844 H 6 Z m 0,0"
         id="path23475" />
    </clipPath>
    <clipPath
       id="clipPath23606">
      <path
         clip-rule="nonzero"
         d="M 0,2 H 6 V 6.421875 H 0 Z m 0,0"
         id="path12" />
    </clipPath>
    <clipPath
       id="clipPath23610">
      <path
         clip-rule="nonzero"
         d="m 6,0 h 5 V 6.421875 H 6 Z m 0,0"
         id="path23608" />
    </clipPath>
    <clipPath
       id="clipPath23764">
      <path
         clip-rule="nonzero"
         d="m 6,0 h 5 V 9.964844 H 6 Z m 0,0"
         id="path23762" />
    </clipPath>
    <clipPath
       id="clipPath48906">
      <path
         clip-rule="nonzero"
         d="M 0,0 H 5 V 4.289062 H 0 Z m 0,0"
         id="path8" />
    </clipPath>
    <marker
       style="overflow:visible"
       id="marker28997-3"
       refX="70.432396"
       refY="38.976665"
       orient="-69.79751587"
       inkscape:stockid="TriangleStart"
       markerWidth="5.3244081"
       markerHeight="6.155385"
       viewBox="0 0 5.3244081 6.1553851"
       inkscape:isstock="true"
       inkscape:collect="always"
       preserveAspectRatio="xMidYMid">
      <path
         transform="scale(0.5)"
         style="fill:context-stroke;fill-rule:evenodd;stroke:context-stroke;stroke-width:1pt"
         d="M 5.77,0 -2.88,5 V -5 Z"
         id="path28995-6" />
    </marker>
  </defs>
  <g
     inkscape:label="Layer 1"
     inkscape:groupmode="layer"
     id="layer1">
    <g
       id="g53770"
       transform="translate(-19.9541, -4.36154)">
      <path
         id="path23075-7"
         style="opacity:1;fill:#ffff00;fill-opacity:0.4;stroke:#000000;stroke-width:0.265;stroke-linecap:butt;stroke-linejoin:miter;stroke-dasharray:none;stroke-opacity:1;marker-start:;marker-end:url(#marker28997-3)"
         d="m 109.64424,25.886844 c 0,0 -8.04595,9.631767 -18.116205,9.941512 -7.505933,0.230871 -18.222494,-6.025783 -20.450432,-9.450586 0.7137,8.639148 -1.711572,16.073607 -6.987687,21.417297 -7.078633,7.169299 -19.611723,6.512264 -19.611723,6.512264 4.907156,3.384931 9.63228,8.045437 9.942029,18.11569 0.23087,7.505935 -3.420498,14.533522 -9.451102,20.450432 8.409521,-0.412415 16.073612,1.711582 21.417297,6.987687 7.169303,7.07865 6.512264,19.61172 6.512264,19.61172 1.646408,-2.68381 8.04544,-9.63177 18.11569,-9.94151 7.505933,-0.23087 17.344499,5.13896 20.450429,9.45059 -1.19777,-7.58032 1.71158,-16.0736 6.98769,-21.417301 7.07864,-7.169297 19.61172,-6.512264 19.61172,-6.512264 0,0 -9.63177,-8.045435 -9.94151,-18.11569 -0.23087,-7.505933 4.08204,-14.210048 9.45059,-20.450431 -6.4737,0.113294 -16.07362,-1.711578 -21.4173,-6.987687 -7.1693,-7.078639 -6.51175,-19.611723 -6.51175,-19.611723 z M 93.107267,54.834948 c 6.331939,-0.02676 13.960803,3.465483 16.409333,9.212357 2.81161,6.599041 -0.0985,16.303696 -5.73402,20.74137 -5.945342,4.681613 -16.834179,5.541924 -22.689567,0.748275 -5.493377,-4.49728 -9.68066,-14.693275 -3.483508,-20.992001 4.153818,-4.2219 8.971231,-9.454681 14.889013,-9.696565 0.20134,-0.0082 0.404492,-0.01257 0.608749,-0.01344 z"
         sodipodi:nodetypes="cscscscscscscscscsssssss" />
      <g
         id="g22991"
         transform="rotate(21.436824,91.28125,72.760422)"
         style="stroke-width:0.264583;stroke-dasharray:none">
        <path
           style="fill:none;stroke:#ff0000;stroke-width:0.264583;stroke-linecap:butt;stroke-linejoin:miter;stroke-dasharray:none;stroke-opacity:1;marker-end:url(#TriangleStart)"
           d="m 55.562495,37.041666 c 3.325497,2.373625 15.58728,4.28105 22.489588,1.322917 9.260417,-3.96875 13.229167,-15.875 13.229167,-15.875"
           id="path22955"
           sodipodi:nodetypes="csc" />
        <path
           style="fill:none;stroke:#0000ff;stroke-width:0.264583;stroke-linecap:butt;stroke-linejoin:miter;stroke-dasharray:none;stroke-opacity:1;marker-start:url(#marker25425)"
           d="m 127,37.041667 c -5.98446,2.471435 -15.58728,4.28105 -22.48959,1.322917 -9.26041,-3.96875 -13.22916,-15.875 -13.22916,-15.875"
           id="path23067"
           sodipodi:nodetypes="csc" />
        <path
           style="fill:none;stroke:#ff00ff;stroke-width:0.264583;stroke-linecap:butt;stroke-linejoin:miter;stroke-dasharray:none;stroke-opacity:1;marker-start:url(#marker35233)"
           d="m 55.562504,108.47916 c 7.677032,-3.45735 15.587276,-4.28104 22.489586,-1.32291 9.26041,3.96875 13.22916,15.875 13.22916,15.875"
           id="path23083"
           sodipodi:nodetypes="csc" />
        <path
           style="fill:none;stroke:#008000;stroke-width:0.264583;stroke-linecap:butt;stroke-linejoin:miter;stroke-dasharray:none;stroke-opacity:1;marker-end:url(#marker31493)"
           d="m 127,108.47917 c -4.46687,-2.87822 -15.58728,-4.28104 -22.48959,-1.32291 -9.26041,3.96875 -12.677516,12.77512 -13.22916,15.875"
           id="path23079"
           sodipodi:nodetypes="csc" />
        <path
           style="fill:none;stroke:#ff0000;stroke-width:0.264583;stroke-linecap:butt;stroke-linejoin:miter;stroke-dasharray:none;stroke-opacity:1;marker-start:url(#marker26851)"
           d="m 127,37.041664 c -2.71646,7.770761 -4.28104,15.58728 -1.32291,22.489593 3.96875,9.26041 15.875,13.22916 15.875,13.22916"
           id="path22975"
           sodipodi:nodetypes="csc" />
        <path
           style="fill:none;stroke:#ff00ff;stroke-width:0.264583;stroke-linecap:butt;stroke-linejoin:miter;stroke-dasharray:none;stroke-opacity:1;marker-end:url(#marker44125)"
           d="m 55.562507,37.041664 c 3.821716,7.780671 4.28104,15.58728 1.32291,22.489593 -3.96875,9.26041 -15.875,13.22916 -15.875,13.22916"
           id="path23059"
           sodipodi:nodetypes="csc" />
        <path
           style="fill:none;stroke:#008000;stroke-width:0.264583;stroke-linecap:butt;stroke-linejoin:miter;stroke-dasharray:none;stroke-opacity:1;marker-start:url(#marker39215)"
           d="m 55.5625,108.47917 c 3.450928,-7.71163 4.28104,-15.58728 1.32291,-22.489593 -3.96875,-9.26041 -10.070206,-11.871834 -15.875,-13.22916"
           id="path22979"
           sodipodi:nodetypes="csc" />
        <path
           style="fill:none;stroke:#0000ff;stroke-width:0.264583;stroke-linecap:butt;stroke-linejoin:miter;stroke-dasharray:none;stroke-opacity:1;marker-end:url(#marker28997)"
           d="m 126.99999,108.47917 c -3.88532,-6.61817 -4.28104,-15.58728 -1.32291,-22.489593 3.96875,-9.26041 15.875,-13.22916 15.875,-13.22916"
           id="path23075"
           sodipodi:nodetypes="csc" />
      </g>
      <g
         inkscape:label=""
         transform="translate(94.6476,68.8346)"
         id="g48998">
        <g
           clip-path="url(#clip-0)"
           id="g17"
           transform="matrix(0.352778,0,0,0.352778,-0.143316,0.0413632)">
          <g
             fill="#000000"
             fill-opacity="1"
             id="g15">
            <g
               id="use13"
               transform="translate(0,4.289)">
              <path
                 d="M 3.71875,-3.765625 C 3.53125,-4.140625 3.25,-4.40625 2.796875,-4.40625 c -1.15625,0 -2.390625,1.46875 -2.390625,2.921875 0,0.9375 0.546875,1.59375 1.3125,1.59375 0.203125,0 0.703125,-0.046875 1.296875,-0.75 0.078125,0.421875 0.4375,0.75 0.90625,0.75 0.359375,0 0.578125,-0.234375 0.75,-0.546875 0.15625,-0.359375 0.296875,-0.96875 0.296875,-0.984375 0,-0.109375 -0.09375,-0.109375 -0.125,-0.109375 -0.09375,0 -0.109375,0.046875 -0.140625,0.1875 -0.171875,0.640625 -0.34375,1.234375 -0.75,1.234375 -0.28125,0 -0.296875,-0.265625 -0.296875,-0.453125 0,-0.21875 0.015625,-0.3125 0.125,-0.75 C 3.890625,-1.71875 3.90625,-1.828125 4,-2.203125 L 4.359375,-3.59375 c 0.0625,-0.28125 0.0625,-0.296875 0.0625,-0.34375 0,-0.171875 -0.109375,-0.265625 -0.28125,-0.265625 -0.25,0 -0.390625,0.21875 -0.421875,0.4375 z M 3.078125,-1.1875 C 3.015625,-1 3.015625,-0.984375 2.875,-0.8125 2.4375,-0.265625 2.03125,-0.109375 1.75,-0.109375 c -0.5,0 -0.640625,-0.546875 -0.640625,-0.9375 0,-0.5 0.3125,-1.71875 0.546875,-2.1875 0.3125,-0.578125 0.75,-0.953125 1.15625,-0.953125 0.640625,0 0.78125,0.8125 0.78125,0.875 0,0.0625 -0.015625,0.125 -0.03125,0.171875 z m 0,0"
                 id="path23" />
            </g>
          </g>
        </g>
      </g>
      <g
         transform="matrix(0.352778,0,0,0.352778,96.793359,67.779307)"
         ns3:version="1.8.1"
         ns3:texconverter="pdflatex"
         ns3:pdfconverter="inkscape"
         ns3:text="$a$"
         ns3:preamble="/home/satvik/.config/inkscape/extensions/textext/default_packages.tex"
         ns3:scale="1.0"
         ns3:alignment="middle center"
         ns3:stroke-to-path="0"
         ns3:inkscapeversion="1.2"
         ns3:jacobian_sqrt="0.352778"
         id="g49325">
        <defs
           id="id-bf5c848c-8604-48d2-bf72-8c0c8701aedf">
          <g
             id="id-8085614b-5c08-407d-b8b4-cb17f29133b3">
            <g
               id="id-6fe91a7c-6fe8-42a7-a598-5848dd71f11e" />
            <g
               id="id-29d82c19-f5d7-481f-bdac-b5bab1c1082a">
              <path
                 d="M 3.71875,-3.765625 C 3.53125,-4.140625 3.25,-4.40625 2.796875,-4.40625 c -1.15625,0 -2.390625,1.46875 -2.390625,2.921875 0,0.9375 0.546875,1.59375 1.3125,1.59375 0.203125,0 0.703125,-0.046875 1.296875,-0.75 0.078125,0.421875 0.4375,0.75 0.90625,0.75 0.359375,0 0.578125,-0.234375 0.75,-0.546875 0.15625,-0.359375 0.296875,-0.96875 0.296875,-0.984375 0,-0.109375 -0.09375,-0.109375 -0.125,-0.109375 -0.09375,0 -0.109375,0.046875 -0.140625,0.1875 -0.171875,0.640625 -0.34375,1.234375 -0.75,1.234375 -0.28125,0 -0.296875,-0.265625 -0.296875,-0.453125 0,-0.21875 0.015625,-0.3125 0.125,-0.75 C 3.890625,-1.71875 3.90625,-1.828125 4,-2.203125 L 4.359375,-3.59375 c 0.0625,-0.28125 0.0625,-0.296875 0.0625,-0.34375 0,-0.171875 -0.109375,-0.265625 -0.28125,-0.265625 -0.25,0 -0.390625,0.21875 -0.421875,0.4375 z M 3.078125,-1.1875 C 3.015625,-1 3.015625,-0.984375 2.875,-0.8125 2.4375,-0.265625 2.03125,-0.109375 1.75,-0.109375 c -0.5,0 -0.640625,-0.546875 -0.640625,-0.9375 0,-0.5 0.3125,-1.71875 0.546875,-2.1875 0.3125,-0.578125 0.75,-0.953125 1.15625,-0.953125 0.640625,0 0.78125,0.8125 0.78125,0.875 0,0.0625 -0.015625,0.125 -0.03125,0.171875 z m 0,0"
                 id="id-3eade95d-990a-407f-a8bb-bb0685efceae" />
            </g>
          </g>
        </defs>
        <g
           fill="#000000"
           fill-opacity="1"
           id="id-8bc1581f-2838-4597-88e8-f7350dafa8f7"
           transform="translate(-149.118,-130.359)">
          <g
             transform="translate(148.712,134.765)"
             id="g49322">
            <path
               d="m -15.795939,-106.31535 c -0.1875,-0.375 -0.46875,-0.64062 -0.921875,-0.64062 -1.15625,0 -2.390625,1.46875 -2.390625,2.92187 0,0.9375 0.546875,1.59375 1.3125,1.59375 0.203125,0 0.703125,-0.0469 1.296875,-0.75 0.07813,0.42188 0.4375,0.75 0.90625,0.75 0.359375,0 0.578125,-0.23437 0.75,-0.54687 0.15625,-0.35938 0.296875,-0.96875 0.296875,-0.98438 0,-0.10937 -0.09375,-0.10937 -0.125,-0.10937 -0.09375,0 -0.109375,0.0469 -0.140625,0.1875 -0.171875,0.64062 -0.34375,1.23437 -0.75,1.23437 -0.28125,0 -0.296875,-0.26562 -0.296875,-0.45312 0,-0.21875 0.01563,-0.3125 0.125,-0.75 0.109375,-0.40625 0.125,-0.51563 0.21875,-0.89063 l 0.359375,-1.39062 c 0.0625,-0.28125 0.0625,-0.29688 0.0625,-0.34375 0,-0.17188 -0.109375,-0.26563 -0.28125,-0.26563 -0.25,0 -0.390625,0.21875 -0.421875,0.4375 z m -0.640625,2.57813 c -0.0625,0.1875 -0.0625,0.20312 -0.203125,0.375 -0.4375,0.54687 -0.84375,0.70312 -1.125,0.70312 -0.5,0 -0.640625,-0.54687 -0.640625,-0.9375 0,-0.5 0.3125,-1.71875 0.546875,-2.1875 0.3125,-0.57812 0.75,-0.95312 1.15625,-0.95312 0.640625,0 0.78125,0.8125 0.78125,0.875 0,0.0625 -0.01563,0.125 -0.03125,0.17187 z m 0,0"
               id="id-b3dc80a6-95f6-4cf5-a07b-903bcc490296"
               style="fill:#ff0000" />
          </g>
        </g>
      </g>
      <g
         transform="matrix(0.352778,0,0,0.352778,119.99603,43.083984)"
         ns3:version="1.8.1"
         ns3:texconverter="pdflatex"
         ns3:pdfconverter="inkscape"
         ns3:text="$b$"
         ns3:preamble="/home/satvik/.config/inkscape/extensions/textext/default_packages.tex"
         ns3:scale="1.0"
         ns3:alignment="middle center"
         ns3:stroke-to-path="0"
         ns3:inkscapeversion="1.2"
         ns3:jacobian_sqrt="0.352778"
         id="g49672"
         style="fill:#0000ff">
        <defs
           id="id-c18c43eb-9b68-48fc-b694-d94c52ec7e99">
          <g
             id="id-15565211-e0be-4a8f-a03c-353a11693e00">
            <g
               id="id-9cb6fc6a-33e0-49b6-8bbc-04b4d7cb13ca" />
            <g
               id="id-48f4f38b-b53e-43c1-a800-6fa0a496fc2b">
              <path
                 d="m 2.375,-6.8125 c 0,0 0,-0.109375 -0.125,-0.109375 -0.21875,0 -0.953125,0.078125 -1.21875,0.109375 -0.078125,0 -0.1875,0.015625 -0.1875,0.1875 0,0.125 0.09375,0.125 0.25,0.125 0.46875,0 0.484375,0.0625 0.484375,0.171875 0,0.0625 -0.078125,0.40625 -0.125,0.609375 l -0.828125,3.25 c -0.109375,0.5 -0.15625,0.671875 -0.15625,1.015625 0,0.9375 0.53125,1.5625 1.265625,1.5625 1.171875,0 2.40625,-1.484375 2.40625,-2.921875 0,-0.90625 -0.53125,-1.59375 -1.328125,-1.59375 -0.453125,0 -0.875,0.296875 -1.171875,0.59375 z M 1.453125,-3.046875 C 1.5,-3.265625 1.5,-3.28125 1.59375,-3.390625 2.078125,-4.03125 2.53125,-4.1875 2.796875,-4.1875 c 0.359375,0 0.625,0.296875 0.625,0.9375 0,0.59375 -0.328125,1.734375 -0.515625,2.109375 -0.328125,0.671875 -0.78125,1.03125 -1.171875,1.03125 -0.34375,0 -0.671875,-0.265625 -0.671875,-1 0,-0.203125 0,-0.390625 0.15625,-1.015625 z m 0,0"
                 id="id-50a89caa-a262-4b1c-98d5-efca84855dfb" />
            </g>
          </g>
        </defs>
        <g
           fill="#000000"
           fill-opacity="1"
           id="id-c2e33cd8-910d-4b6e-b28e-2c73f76ed146"
           transform="translate(-149.181,-127.843)"
           style="fill:#0000ff">
          <g
             transform="translate(148.712,134.765)"
             id="g49669"
             style="fill:#0000ff">
            <path
               d="m 2.375,-6.8125 c 0,0 0,-0.109375 -0.125,-0.109375 -0.21875,0 -0.953125,0.078125 -1.21875,0.109375 -0.078125,0 -0.1875,0.015625 -0.1875,0.1875 0,0.125 0.09375,0.125 0.25,0.125 0.46875,0 0.484375,0.0625 0.484375,0.171875 0,0.0625 -0.078125,0.40625 -0.125,0.609375 l -0.828125,3.25 c -0.109375,0.5 -0.15625,0.671875 -0.15625,1.015625 0,0.9375 0.53125,1.5625 1.265625,1.5625 1.171875,0 2.40625,-1.484375 2.40625,-2.921875 0,-0.90625 -0.53125,-1.59375 -1.328125,-1.59375 -0.453125,0 -0.875,0.296875 -1.171875,0.59375 z M 1.453125,-3.046875 C 1.5,-3.265625 1.5,-3.28125 1.59375,-3.390625 2.078125,-4.03125 2.53125,-4.1875 2.796875,-4.1875 c 0.359375,0 0.625,0.296875 0.625,0.9375 0,0.59375 -0.328125,1.734375 -0.515625,2.109375 -0.328125,0.671875 -0.78125,1.03125 -1.171875,1.03125 -0.34375,0 -0.671875,-0.265625 -0.671875,-1 0,-0.203125 0,-0.390625 0.15625,-1.015625 z m 0,0"
               id="id-da20d96a-0e60-4b20-9b24-e921146603de"
               style="fill:#0000ff" />
          </g>
        </g>
      </g>
      <g
         transform="matrix(0.352778,0,0,0.352778,130.70894,71.116966)"
         ns3:version="1.8.1"
         ns3:texconverter="pdflatex"
         ns3:pdfconverter="inkscape"
         ns3:text="$a^{-1}$"
         ns3:preamble="/home/satvik/.config/inkscape/extensions/textext/default_packages.tex"
         ns3:scale="1.0"
         ns3:alignment="middle center"
         ns3:stroke-to-path="0"
         ns3:inkscapeversion="1.2"
         ns3:jacobian_sqrt="0.352778"
         id="g50623"
         style="fill:#ff0000">
        <defs
           id="id-8673a145-c4ac-4672-b689-330558949ed4">
          <g
             id="id-bddbf1b1-5321-40bc-aa1a-374bbc1c1286">
            <g
               id="id-8f123018-a841-4516-93c9-c9384492e8d8" />
            <g
               id="id-6d8f8f52-4aba-43d6-8f3a-e1f0399ef6c6">
              <path
                 d="M 3.71875,-3.765625 C 3.53125,-4.140625 3.25,-4.40625 2.796875,-4.40625 c -1.15625,0 -2.390625,1.46875 -2.390625,2.921875 0,0.9375 0.546875,1.59375 1.3125,1.59375 0.203125,0 0.703125,-0.046875 1.296875,-0.75 0.078125,0.421875 0.4375,0.75 0.90625,0.75 0.359375,0 0.578125,-0.234375 0.75,-0.546875 0.15625,-0.359375 0.296875,-0.96875 0.296875,-0.984375 0,-0.109375 -0.09375,-0.109375 -0.125,-0.109375 -0.09375,0 -0.109375,0.046875 -0.140625,0.1875 -0.171875,0.640625 -0.34375,1.234375 -0.75,1.234375 -0.28125,0 -0.296875,-0.265625 -0.296875,-0.453125 0,-0.21875 0.015625,-0.3125 0.125,-0.75 C 3.890625,-1.71875 3.90625,-1.828125 4,-2.203125 L 4.359375,-3.59375 c 0.0625,-0.28125 0.0625,-0.296875 0.0625,-0.34375 0,-0.171875 -0.109375,-0.265625 -0.28125,-0.265625 -0.25,0 -0.390625,0.21875 -0.421875,0.4375 z M 3.078125,-1.1875 C 3.015625,-1 3.015625,-0.984375 2.875,-0.8125 2.4375,-0.265625 2.03125,-0.109375 1.75,-0.109375 c -0.5,0 -0.640625,-0.546875 -0.640625,-0.9375 0,-0.5 0.3125,-1.71875 0.546875,-2.1875 0.3125,-0.578125 0.75,-0.953125 1.15625,-0.953125 0.640625,0 0.78125,0.8125 0.78125,0.875 0,0.0625 -0.015625,0.125 -0.03125,0.171875 z m 0,0"
                 id="id-33c31d38-b4d1-4bd5-9064-969202597b6f" />
            </g>
            <g
               id="id-0f0f3385-27a0-4a89-a7e3-f2fc09dfac11" />
            <g
               id="id-ce8567fd-6d75-49fd-acc4-414a8dfb4929">
              <path
                 d="m 5.1875,-1.578125 c 0.109375,0 0.28125,0 0.28125,-0.15625 0,-0.1875 -0.171875,-0.1875 -0.28125,-0.1875 H 1.03125 c -0.109375,0 -0.28125,0 -0.28125,0.171875 0,0.171875 0.15625,0.171875 0.28125,0.171875 z m 0,0"
                 id="id-1508335f-60e9-46e0-86fe-8ece73668220" />
            </g>
            <g
               id="id-6682f7fe-f559-42ec-b391-0cb876ce7e70" />
            <g
               id="id-8eb6bb53-d757-4e92-8aae-40cad7c68072">
              <path
                 d="m 2.328125,-4.4375 c 0,-0.1875 0,-0.1875 -0.203125,-0.1875 -0.453125,0.4375 -1.078125,0.4375 -1.359375,0.4375 v 0.25 c 0.15625,0 0.625,0 1,-0.1875 v 3.546875 c 0,0.234375 0,0.328125 -0.6875,0.328125 H 0.8125 V 0 c 0.125,0 0.984375,-0.03125 1.234375,-0.03125 0.21875,0 1.09375,0.03125 1.25,0.03125 V -0.25 H 3.03125 c -0.703125,0 -0.703125,-0.09375 -0.703125,-0.328125 z m 0,0"
                 id="id-dbbc88e9-b84a-46ed-9051-123851c9eb6d" />
            </g>
          </g>
        </defs>
        <g
           fill="#000000"
           fill-opacity="1"
           id="id-3a6816a3-745e-4f32-8660-f1b339bed502"
           transform="translate(-149.118,-126.524)"
           style="fill:#ff0000">
          <g
             transform="translate(148.712,134.765)"
             id="g50612"
             style="fill:#ff0000">
            <path
               d="M 3.71875,-3.765625 C 3.53125,-4.140625 3.25,-4.40625 2.796875,-4.40625 c -1.15625,0 -2.390625,1.46875 -2.390625,2.921875 0,0.9375 0.546875,1.59375 1.3125,1.59375 0.203125,0 0.703125,-0.046875 1.296875,-0.75 0.078125,0.421875 0.4375,0.75 0.90625,0.75 0.359375,0 0.578125,-0.234375 0.75,-0.546875 0.15625,-0.359375 0.296875,-0.96875 0.296875,-0.984375 0,-0.109375 -0.09375,-0.109375 -0.125,-0.109375 -0.09375,0 -0.109375,0.046875 -0.140625,0.1875 -0.171875,0.640625 -0.34375,1.234375 -0.75,1.234375 -0.28125,0 -0.296875,-0.265625 -0.296875,-0.453125 0,-0.21875 0.015625,-0.3125 0.125,-0.75 C 3.890625,-1.71875 3.90625,-1.828125 4,-2.203125 L 4.359375,-3.59375 c 0.0625,-0.28125 0.0625,-0.296875 0.0625,-0.34375 0,-0.171875 -0.109375,-0.265625 -0.28125,-0.265625 -0.25,0 -0.390625,0.21875 -0.421875,0.4375 z M 3.078125,-1.1875 C 3.015625,-1 3.015625,-0.984375 2.875,-0.8125 2.4375,-0.265625 2.03125,-0.109375 1.75,-0.109375 c -0.5,0 -0.640625,-0.546875 -0.640625,-0.9375 0,-0.5 0.3125,-1.71875 0.546875,-2.1875 0.3125,-0.578125 0.75,-0.953125 1.15625,-0.953125 0.640625,0 0.78125,0.8125 0.78125,0.875 0,0.0625 -0.015625,0.125 -0.03125,0.171875 z m 0,0"
               id="id-c13e1a2b-da3e-4553-a6c5-cdb6861308c8"
               style="fill:#ff0000" />
          </g>
        </g>
        <g
           fill="#000000"
           fill-opacity="1"
           id="id-b9d18bf1-2a69-4271-9e8a-972f7071291c"
           transform="translate(-149.118,-126.524)"
           style="fill:#ff0000">
          <g
             transform="translate(153.978,131.149)"
             id="g50616"
             style="fill:#ff0000">
            <path
               d="m 5.1875,-1.578125 c 0.109375,0 0.28125,0 0.28125,-0.15625 0,-0.1875 -0.171875,-0.1875 -0.28125,-0.1875 H 1.03125 c -0.109375,0 -0.28125,0 -0.28125,0.171875 0,0.171875 0.15625,0.171875 0.28125,0.171875 z m 0,0"
               id="id-038e7e32-d65a-42df-8982-53a61924eb96"
               style="fill:#ff0000" />
          </g>
        </g>
        <g
           fill="#000000"
           fill-opacity="1"
           id="id-d3852eb1-fd18-47aa-9e40-38a2ccfb22c1"
           transform="translate(-149.118,-126.524)"
           style="fill:#ff0000">
          <g
             transform="translate(160.205,131.149)"
             id="g50620"
             style="fill:#ff0000">
            <path
               d="m 2.328125,-4.4375 c 0,-0.1875 0,-0.1875 -0.203125,-0.1875 -0.453125,0.4375 -1.078125,0.4375 -1.359375,0.4375 v 0.25 c 0.15625,0 0.625,0 1,-0.1875 v 3.546875 c 0,0.234375 0,0.328125 -0.6875,0.328125 H 0.8125 V 0 c 0.125,0 0.984375,-0.03125 1.234375,-0.03125 0.21875,0 1.09375,0.03125 1.25,0.03125 V -0.25 H 3.03125 c -0.703125,0 -0.703125,-0.09375 -0.703125,-0.328125 z m 0,0"
               id="id-349804f8-d02a-49d8-ade6-d277d14e3d55"
               style="fill:#ff0000" />
          </g>
        </g>
      </g>
      <g
         transform="matrix(0.352778,0,0,0.352778,119.32143,99.439999)"
         ns3:version="1.8.1"
         ns3:texconverter="pdflatex"
         ns3:pdfconverter="inkscape"
         ns3:text="$b^{-1}$"
         ns3:preamble="/home/satvik/.config/inkscape/extensions/textext/default_packages.tex"
         ns3:scale="1.0"
         ns3:alignment="middle center"
         ns3:stroke-to-path="0"
         ns3:inkscapeversion="1.2"
         ns3:jacobian_sqrt="0.352778"
         id="g51054"
         style="fill:#0000ff">
        <defs
           id="id-a96115c9-b6bf-4a1a-bdec-ad7deb76ddc0">
          <g
             id="id-2909b70c-b096-46a1-b8db-2e68c5518361">
            <g
               id="id-61208341-9c6d-4802-a799-6b6029edb393" />
            <g
               id="id-fb3182cb-c7b1-4a81-82aa-5f3dd55767ad">
              <path
                 d="m 2.375,-6.8125 c 0,0 0,-0.109375 -0.125,-0.109375 -0.21875,0 -0.953125,0.078125 -1.21875,0.109375 -0.078125,0 -0.1875,0.015625 -0.1875,0.1875 0,0.125 0.09375,0.125 0.25,0.125 0.46875,0 0.484375,0.0625 0.484375,0.171875 0,0.0625 -0.078125,0.40625 -0.125,0.609375 l -0.828125,3.25 c -0.109375,0.5 -0.15625,0.671875 -0.15625,1.015625 0,0.9375 0.53125,1.5625 1.265625,1.5625 1.171875,0 2.40625,-1.484375 2.40625,-2.921875 0,-0.90625 -0.53125,-1.59375 -1.328125,-1.59375 -0.453125,0 -0.875,0.296875 -1.171875,0.59375 z M 1.453125,-3.046875 C 1.5,-3.265625 1.5,-3.28125 1.59375,-3.390625 2.078125,-4.03125 2.53125,-4.1875 2.796875,-4.1875 c 0.359375,0 0.625,0.296875 0.625,0.9375 0,0.59375 -0.328125,1.734375 -0.515625,2.109375 -0.328125,0.671875 -0.78125,1.03125 -1.171875,1.03125 -0.34375,0 -0.671875,-0.265625 -0.671875,-1 0,-0.203125 0,-0.390625 0.15625,-1.015625 z m 0,0"
                 id="id-0c7f555b-3e0e-44e7-a632-b0a0ba44657a" />
            </g>
            <g
               id="id-2dcfffaa-e0a0-4483-8b45-99a3cfb6194e" />
            <g
               id="id-16ca6f68-9218-43d3-9222-83b6ad9060d5">
              <path
                 d="m 5.1875,-1.578125 c 0.109375,0 0.28125,0 0.28125,-0.15625 0,-0.1875 -0.171875,-0.1875 -0.28125,-0.1875 H 1.03125 c -0.109375,0 -0.28125,0 -0.28125,0.171875 0,0.171875 0.15625,0.171875 0.28125,0.171875 z m 0,0"
                 id="id-0ad51578-591e-4837-af08-729b7445a4c1" />
            </g>
            <g
               id="id-0738bc0a-e5e5-418a-bd94-83574615c961" />
            <g
               id="id-c02d2231-c21b-4345-aede-b65469fe1d5a">
              <path
                 d="m 2.328125,-4.4375 c 0,-0.1875 0,-0.1875 -0.203125,-0.1875 -0.453125,0.4375 -1.078125,0.4375 -1.359375,0.4375 v 0.25 c 0.15625,0 0.625,0 1,-0.1875 v 3.546875 c 0,0.234375 0,0.328125 -0.6875,0.328125 H 0.8125 V 0 c 0.125,0 0.984375,-0.03125 1.234375,-0.03125 0.21875,0 1.09375,0.03125 1.25,0.03125 V -0.25 H 3.03125 c -0.703125,0 -0.703125,-0.09375 -0.703125,-0.328125 z m 0,0"
                 id="id-e3ec19ea-c991-4f8c-add8-e6d0459313d6" />
            </g>
          </g>
        </defs>
        <g
           fill="#000000"
           fill-opacity="1"
           id="id-18b4ea11-e702-4299-9c7a-f9677802d6ab"
           transform="translate(-149.181,-126.524)"
           style="fill:#0000ff">
          <g
             transform="translate(148.712,134.765)"
             id="g51043"
             style="fill:#0000ff">
            <path
               d="m 2.375,-6.8125 c 0,0 0,-0.109375 -0.125,-0.109375 -0.21875,0 -0.953125,0.078125 -1.21875,0.109375 -0.078125,0 -0.1875,0.015625 -0.1875,0.1875 0,0.125 0.09375,0.125 0.25,0.125 0.46875,0 0.484375,0.0625 0.484375,0.171875 0,0.0625 -0.078125,0.40625 -0.125,0.609375 l -0.828125,3.25 c -0.109375,0.5 -0.15625,0.671875 -0.15625,1.015625 0,0.9375 0.53125,1.5625 1.265625,1.5625 1.171875,0 2.40625,-1.484375 2.40625,-2.921875 0,-0.90625 -0.53125,-1.59375 -1.328125,-1.59375 -0.453125,0 -0.875,0.296875 -1.171875,0.59375 z M 1.453125,-3.046875 C 1.5,-3.265625 1.5,-3.28125 1.59375,-3.390625 2.078125,-4.03125 2.53125,-4.1875 2.796875,-4.1875 c 0.359375,0 0.625,0.296875 0.625,0.9375 0,0.59375 -0.328125,1.734375 -0.515625,2.109375 -0.328125,0.671875 -0.78125,1.03125 -1.171875,1.03125 -0.34375,0 -0.671875,-0.265625 -0.671875,-1 0,-0.203125 0,-0.390625 0.15625,-1.015625 z m 0,0"
               id="id-818aea1e-ed01-47df-9766-aac18707597e"
               style="fill:#0000ff" />
          </g>
        </g>
        <g
           fill="#000000"
           fill-opacity="1"
           id="id-179cc915-7b5f-432a-8b37-cee1fb725915"
           transform="translate(-149.181,-126.524)"
           style="fill:#0000ff">
          <g
             transform="translate(152.988,131.149)"
             id="g51047"
             style="fill:#0000ff">
            <path
               d="m 5.1875,-1.578125 c 0.109375,0 0.28125,0 0.28125,-0.15625 0,-0.1875 -0.171875,-0.1875 -0.28125,-0.1875 H 1.03125 c -0.109375,0 -0.28125,0 -0.28125,0.171875 0,0.171875 0.15625,0.171875 0.28125,0.171875 z m 0,0"
               id="id-7ffcf807-1d7f-4207-b1d1-940d2828fcc4"
               style="fill:#0000ff" />
          </g>
        </g>
        <g
           fill="#000000"
           fill-opacity="1"
           id="id-4a079d4e-81ce-46aa-9035-6e4b691ec481"
           transform="translate(-149.181,-126.524)"
           style="fill:#0000ff">
          <g
             transform="translate(159.215,131.149)"
             id="g51051"
             style="fill:#0000ff">
            <path
               d="m 2.328125,-4.4375 c 0,-0.1875 0,-0.1875 -0.203125,-0.1875 -0.453125,0.4375 -1.078125,0.4375 -1.359375,0.4375 v 0.25 c 0.15625,0 0.625,0 1,-0.1875 v 3.546875 c 0,0.234375 0,0.328125 -0.6875,0.328125 H 0.8125 V 0 c 0.125,0 0.984375,-0.03125 1.234375,-0.03125 0.21875,0 1.09375,0.03125 1.25,0.03125 V -0.25 H 3.03125 c -0.703125,0 -0.703125,-0.09375 -0.703125,-0.328125 z m 0,0"
               id="id-ea944e68-1c8c-44a2-bf8b-559cd4cf6855"
               style="fill:#0000ff" />
          </g>
        </g>
      </g>
      <g
         transform="matrix(0.352778,0,0,0.352778,90.969084,112.73854)"
         ns3:version="1.8.1"
         ns3:texconverter="pdflatex"
         ns3:pdfconverter="inkscape"
         ns3:text="$c$"
         ns3:preamble="/home/satvik/.config/inkscape/extensions/textext/default_packages.tex"
         ns3:scale="1.0"
         ns3:alignment="middle center"
         ns3:stroke-to-path="0"
         ns3:inkscapeversion="1.2"
         ns3:jacobian_sqrt="0.352778"
         id="g51513"
         style="fill:#008000">
        <defs
           id="id-1a9ead4b-f788-4898-be2d-903af711b7b7">
          <g
             id="id-48dc74e9-0cbd-4493-8670-e3eddacc11e4">
            <g
               id="id-3f1732da-1202-42c8-a5cd-c3bc3c33156d" />
            <g
               id="id-96e7f01c-9fb0-4d39-9ddf-cb689055ece9">
              <path
                 d="m 3.953125,-3.78125 c -0.171875,0 -0.296875,0 -0.4375,0.125 -0.171875,0.15625 -0.1875,0.328125 -0.1875,0.390625 0,0.25 0.1875,0.359375 0.375,0.359375 0.28125,0 0.546875,-0.25 0.546875,-0.640625 0,-0.484375 -0.46875,-0.859375 -1.171875,-0.859375 -1.34375,0 -2.671875,1.421875 -2.671875,2.828125 0,0.90625 0.578125,1.6875 1.625,1.6875 1.421875,0 2.25,-1.0625 2.25,-1.171875 0,-0.0625 -0.046875,-0.140625 -0.109375,-0.140625 -0.0625,0 -0.078125,0.03125 -0.140625,0.109375 -0.78125,0.984375 -1.875,0.984375 -1.984375,0.984375 -0.625,0 -0.90625,-0.484375 -0.90625,-1.09375 0,-0.40625 0.203125,-1.375 0.546875,-1.984375 0.3125,-0.578125 0.859375,-1 1.40625,-1 0.328125,0 0.71875,0.125 0.859375,0.40625 z m 0,0"
                 id="id-e441366d-d80f-480a-ac54-38469784e94d" />
            </g>
          </g>
        </defs>
        <g
           fill="#000000"
           fill-opacity="1"
           id="id-c301f254-1184-48b3-a466-6089155b6dce"
           transform="translate(-149.118,-130.359)"
           style="fill:#008000">
          <g
             transform="translate(148.712,134.765)"
             id="g51510"
             style="fill:#008000">
            <path
               d="m 3.953125,-3.78125 c -0.171875,0 -0.296875,0 -0.4375,0.125 -0.171875,0.15625 -0.1875,0.328125 -0.1875,0.390625 0,0.25 0.1875,0.359375 0.375,0.359375 0.28125,0 0.546875,-0.25 0.546875,-0.640625 0,-0.484375 -0.46875,-0.859375 -1.171875,-0.859375 -1.34375,0 -2.671875,1.421875 -2.671875,2.828125 0,0.90625 0.578125,1.6875 1.625,1.6875 1.421875,0 2.25,-1.0625 2.25,-1.171875 0,-0.0625 -0.046875,-0.140625 -0.109375,-0.140625 -0.0625,0 -0.078125,0.03125 -0.140625,0.109375 -0.78125,0.984375 -1.875,0.984375 -1.984375,0.984375 -0.625,0 -0.90625,-0.484375 -0.90625,-1.09375 0,-0.40625 0.203125,-1.375 0.546875,-1.984375 0.3125,-0.578125 0.859375,-1 1.40625,-1 0.328125,0 0.71875,0.125 0.859375,0.40625 z m 0,0"
               id="id-a1d01e0d-86ac-4fce-bb24-b853f1880684"
               style="fill:#008000" />
          </g>
        </g>
      </g>
      <g
         transform="matrix(0.352778,0,0,0.352778,63.240778,101.61949)"
         ns3:version="1.8.1"
         ns3:texconverter="pdflatex"
         ns3:pdfconverter="inkscape"
         ns3:text="$d$"
         ns3:preamble="/home/satvik/.config/inkscape/extensions/textext/default_packages.tex"
         ns3:scale="1.0"
         ns3:alignment="middle center"
         ns3:stroke-to-path="0"
         ns3:inkscapeversion="1.2"
         ns3:jacobian_sqrt="0.352778"
         id="g51978"
         style="fill:#ff00ff">
        <defs
           id="id-95dd8a25-7b98-4ce3-af07-74793f823983">
          <g
             id="id-311997bd-bb56-42b9-8197-08044140f059">
            <g
               id="id-0e0f9622-0c4f-420e-95ee-1e7b0786d91f" />
            <g
               id="id-d5975ea2-5738-4d67-854e-7f1b9b2a4850">
              <path
                 d="m 5.140625,-6.8125 c 0,0 0,-0.109375 -0.125,-0.109375 -0.15625,0 -1.09375,0.09375 -1.265625,0.109375 -0.078125,0.015625 -0.140625,0.0625 -0.140625,0.1875 0,0.125 0.09375,0.125 0.234375,0.125 0.484375,0 0.5,0.0625 0.5,0.171875 L 4.3125,-6.125 3.71875,-3.765625 C 3.53125,-4.140625 3.25,-4.40625 2.796875,-4.40625 c -1.15625,0 -2.390625,1.46875 -2.390625,2.921875 0,0.9375 0.546875,1.59375 1.3125,1.59375 0.203125,0 0.703125,-0.046875 1.296875,-0.75 0.078125,0.421875 0.4375,0.75 0.90625,0.75 0.359375,0 0.578125,-0.234375 0.75,-0.546875 0.15625,-0.359375 0.296875,-0.96875 0.296875,-0.984375 0,-0.109375 -0.09375,-0.109375 -0.125,-0.109375 -0.09375,0 -0.109375,0.046875 -0.140625,0.1875 -0.171875,0.640625 -0.34375,1.234375 -0.75,1.234375 -0.28125,0 -0.296875,-0.265625 -0.296875,-0.453125 0,-0.25 0.015625,-0.3125 0.046875,-0.484375 z m -2.0625,5.625 C 3.015625,-1 3.015625,-0.984375 2.875,-0.8125 2.4375,-0.265625 2.03125,-0.109375 1.75,-0.109375 c -0.5,0 -0.640625,-0.546875 -0.640625,-0.9375 0,-0.5 0.3125,-1.71875 0.546875,-2.1875 0.3125,-0.578125 0.75,-0.953125 1.15625,-0.953125 0.640625,0 0.78125,0.8125 0.78125,0.875 0,0.0625 -0.015625,0.125 -0.03125,0.171875 z m 0,0"
                 id="id-02877d24-98fb-4bbe-b6ea-8550c5b13afc" />
            </g>
          </g>
        </defs>
        <g
           fill="#000000"
           fill-opacity="1"
           id="id-dede51d9-284b-44cc-989e-4d42f8b13dd0"
           transform="translate(-149.118,-127.843)"
           style="fill:#ff00ff">
          <g
             transform="translate(148.712,134.765)"
             id="g51975"
             style="fill:#ff00ff">
            <path
               d="m 5.140625,-6.8125 c 0,0 0,-0.109375 -0.125,-0.109375 -0.15625,0 -1.09375,0.09375 -1.265625,0.109375 -0.078125,0.015625 -0.140625,0.0625 -0.140625,0.1875 0,0.125 0.09375,0.125 0.234375,0.125 0.484375,0 0.5,0.0625 0.5,0.171875 L 4.3125,-6.125 3.71875,-3.765625 C 3.53125,-4.140625 3.25,-4.40625 2.796875,-4.40625 c -1.15625,0 -2.390625,1.46875 -2.390625,2.921875 0,0.9375 0.546875,1.59375 1.3125,1.59375 0.203125,0 0.703125,-0.046875 1.296875,-0.75 0.078125,0.421875 0.4375,0.75 0.90625,0.75 0.359375,0 0.578125,-0.234375 0.75,-0.546875 0.15625,-0.359375 0.296875,-0.96875 0.296875,-0.984375 0,-0.109375 -0.09375,-0.109375 -0.125,-0.109375 -0.09375,0 -0.109375,0.046875 -0.140625,0.1875 -0.171875,0.640625 -0.34375,1.234375 -0.75,1.234375 -0.28125,0 -0.296875,-0.265625 -0.296875,-0.453125 0,-0.25 0.015625,-0.3125 0.046875,-0.484375 z m -2.0625,5.625 C 3.015625,-1 3.015625,-0.984375 2.875,-0.8125 2.4375,-0.265625 2.03125,-0.109375 1.75,-0.109375 c -0.5,0 -0.640625,-0.546875 -0.640625,-0.9375 0,-0.5 0.3125,-1.71875 0.546875,-2.1875 0.3125,-0.578125 0.75,-0.953125 1.15625,-0.953125 0.640625,0 0.78125,0.8125 0.78125,0.875 0,0.0625 -0.015625,0.125 -0.03125,0.171875 z m 0,0"
               id="id-be4af939-c3f0-42df-a7da-3189abb45e8c"
               style="fill:#ff00ff" />
          </g>
        </g>
      </g>
      <g
         transform="matrix(0.352778,0,0,0.352778,47.696637,71.52346)"
         ns3:version="1.8.1"
         ns3:texconverter="pdflatex"
         ns3:pdfconverter="inkscape"
         ns3:text="$c^{-1}$"
         ns3:preamble="/home/satvik/.config/inkscape/extensions/textext/default_packages.tex"
         ns3:scale="1.0"
         ns3:alignment="middle center"
         ns3:stroke-to-path="0"
         ns3:inkscapeversion="1.2"
         ns3:jacobian_sqrt="0.352778"
         id="g52682"
         style="fill:#008000">
        <defs
           id="id-8b547ce7-4c8a-4903-821d-5dc94feb52e5">
          <g
             id="id-5b983dc9-8c2e-495d-8867-96e91e699c89">
            <g
               id="id-c83d6865-2186-4207-8a66-c1c893019b6f" />
            <g
               id="id-edc829a2-1422-41cc-aedb-795717264f4b">
              <path
                 d="m 3.953125,-3.78125 c -0.171875,0 -0.296875,0 -0.4375,0.125 -0.171875,0.15625 -0.1875,0.328125 -0.1875,0.390625 0,0.25 0.1875,0.359375 0.375,0.359375 0.28125,0 0.546875,-0.25 0.546875,-0.640625 0,-0.484375 -0.46875,-0.859375 -1.171875,-0.859375 -1.34375,0 -2.671875,1.421875 -2.671875,2.828125 0,0.90625 0.578125,1.6875 1.625,1.6875 1.421875,0 2.25,-1.0625 2.25,-1.171875 0,-0.0625 -0.046875,-0.140625 -0.109375,-0.140625 -0.0625,0 -0.078125,0.03125 -0.140625,0.109375 -0.78125,0.984375 -1.875,0.984375 -1.984375,0.984375 -0.625,0 -0.90625,-0.484375 -0.90625,-1.09375 0,-0.40625 0.203125,-1.375 0.546875,-1.984375 0.3125,-0.578125 0.859375,-1 1.40625,-1 0.328125,0 0.71875,0.125 0.859375,0.40625 z m 0,0"
                 id="id-facff47d-9b03-4e06-aec1-41b48c267b88" />
            </g>
            <g
               id="id-47269a39-2f56-4323-b6b1-5b6ddeb43cb3" />
            <g
               id="id-a6ffdc08-5c12-4695-9545-082f9201ca63">
              <path
                 d="m 5.1875,-1.578125 c 0.109375,0 0.28125,0 0.28125,-0.15625 0,-0.1875 -0.171875,-0.1875 -0.28125,-0.1875 H 1.03125 c -0.109375,0 -0.28125,0 -0.28125,0.171875 0,0.171875 0.15625,0.171875 0.28125,0.171875 z m 0,0"
                 id="id-b37ce44c-c22b-44c7-b16a-48ddacb79d1e" />
            </g>
            <g
               id="id-9d5458e7-eff2-441b-a328-38666aa88ec6" />
            <g
               id="id-e393c5c3-1716-4920-869d-cc58baf66c67">
              <path
                 d="m 2.328125,-4.4375 c 0,-0.1875 0,-0.1875 -0.203125,-0.1875 -0.453125,0.4375 -1.078125,0.4375 -1.359375,0.4375 v 0.25 c 0.15625,0 0.625,0 1,-0.1875 v 3.546875 c 0,0.234375 0,0.328125 -0.6875,0.328125 H 0.8125 V 0 c 0.125,0 0.984375,-0.03125 1.234375,-0.03125 0.21875,0 1.09375,0.03125 1.25,0.03125 V -0.25 H 3.03125 c -0.703125,0 -0.703125,-0.09375 -0.703125,-0.328125 z m 0,0"
                 id="id-15ddf0ec-3af2-46fa-9a88-d3e5adffd346" />
            </g>
          </g>
        </defs>
        <g
           fill="#000000"
           fill-opacity="1"
           id="id-5a3b3817-33e5-4cb1-8662-38d0e9f4dbf3"
           transform="translate(-149.118,-126.524)"
           style="fill:#008000">
          <g
             transform="translate(148.712,134.765)"
             id="g52671"
             style="fill:#008000">
            <path
               d="m 3.953125,-3.78125 c -0.171875,0 -0.296875,0 -0.4375,0.125 -0.171875,0.15625 -0.1875,0.328125 -0.1875,0.390625 0,0.25 0.1875,0.359375 0.375,0.359375 0.28125,0 0.546875,-0.25 0.546875,-0.640625 0,-0.484375 -0.46875,-0.859375 -1.171875,-0.859375 -1.34375,0 -2.671875,1.421875 -2.671875,2.828125 0,0.90625 0.578125,1.6875 1.625,1.6875 1.421875,0 2.25,-1.0625 2.25,-1.171875 0,-0.0625 -0.046875,-0.140625 -0.109375,-0.140625 -0.0625,0 -0.078125,0.03125 -0.140625,0.109375 -0.78125,0.984375 -1.875,0.984375 -1.984375,0.984375 -0.625,0 -0.90625,-0.484375 -0.90625,-1.09375 0,-0.40625 0.203125,-1.375 0.546875,-1.984375 0.3125,-0.578125 0.859375,-1 1.40625,-1 0.328125,0 0.71875,0.125 0.859375,0.40625 z m 0,0"
               id="id-2d44d15c-1c3d-4d5f-862b-c67f412cf698"
               style="fill:#008000" />
          </g>
        </g>
        <g
           fill="#000000"
           fill-opacity="1"
           id="id-2ecd2d25-7229-4975-9593-da069b0df4cf"
           transform="translate(-149.118,-126.524)"
           style="fill:#008000">
          <g
             transform="translate(153.024,131.149)"
             id="g52675"
             style="fill:#008000">
            <path
               d="m 5.1875,-1.578125 c 0.109375,0 0.28125,0 0.28125,-0.15625 0,-0.1875 -0.171875,-0.1875 -0.28125,-0.1875 H 1.03125 c -0.109375,0 -0.28125,0 -0.28125,0.171875 0,0.171875 0.15625,0.171875 0.28125,0.171875 z m 0,0"
               id="id-ea4e5507-b4f0-4bf6-ba99-fa1bea3fa84d"
               style="fill:#008000" />
          </g>
        </g>
        <g
           fill="#000000"
           fill-opacity="1"
           id="id-bbf8b680-fadb-47f5-9f13-d90a677f0c80"
           transform="translate(-149.118,-126.524)"
           style="fill:#008000">
          <g
             transform="translate(159.25,131.149)"
             id="g52679"
             style="fill:#008000">
            <path
               d="m 2.328125,-4.4375 c 0,-0.1875 0,-0.1875 -0.203125,-0.1875 -0.453125,0.4375 -1.078125,0.4375 -1.359375,0.4375 v 0.25 c 0.15625,0 0.625,0 1,-0.1875 v 3.546875 c 0,0.234375 0,0.328125 -0.6875,0.328125 H 0.8125 V 0 c 0.125,0 0.984375,-0.03125 1.234375,-0.03125 0.21875,0 1.09375,0.03125 1.25,0.03125 V -0.25 H 3.03125 c -0.703125,0 -0.703125,-0.09375 -0.703125,-0.328125 z m 0,0"
               id="id-fd2bb7bc-a023-4eb7-b9b1-69de92399da9"
               style="fill:#008000" />
          </g>
        </g>
      </g>
      <g
         transform="matrix(0.352778,0,0,0.352778,59.210476,42.364573)"
         ns3:version="1.8.1"
         ns3:texconverter="pdflatex"
         ns3:pdfconverter="inkscape"
         ns3:text="$d^{-1}$"
         ns3:preamble="/home/satvik/.config/inkscape/extensions/textext/default_packages.tex"
         ns3:scale="1.0"
         ns3:alignment="middle center"
         ns3:stroke-to-path="0"
         ns3:inkscapeversion="1.2"
         ns3:jacobian_sqrt="0.352778"
         id="g53233"
         style="fill:#ff00ff">
        <defs
           id="id-7e8057d7-7351-4e8d-8a48-a0699c8a362c">
          <g
             id="id-cee15e58-7873-4ac4-b697-217516b39e9e">
            <g
               id="id-cb0d3e9c-24fe-4e14-bfb6-615f21b275dd" />
            <g
               id="id-739a8478-679b-44fd-bfc5-56dd2e0d052d">
              <path
                 d="m 5.140625,-6.8125 c 0,0 0,-0.109375 -0.125,-0.109375 -0.15625,0 -1.09375,0.09375 -1.265625,0.109375 -0.078125,0.015625 -0.140625,0.0625 -0.140625,0.1875 0,0.125 0.09375,0.125 0.234375,0.125 0.484375,0 0.5,0.0625 0.5,0.171875 L 4.3125,-6.125 3.71875,-3.765625 C 3.53125,-4.140625 3.25,-4.40625 2.796875,-4.40625 c -1.15625,0 -2.390625,1.46875 -2.390625,2.921875 0,0.9375 0.546875,1.59375 1.3125,1.59375 0.203125,0 0.703125,-0.046875 1.296875,-0.75 0.078125,0.421875 0.4375,0.75 0.90625,0.75 0.359375,0 0.578125,-0.234375 0.75,-0.546875 0.15625,-0.359375 0.296875,-0.96875 0.296875,-0.984375 0,-0.109375 -0.09375,-0.109375 -0.125,-0.109375 -0.09375,0 -0.109375,0.046875 -0.140625,0.1875 -0.171875,0.640625 -0.34375,1.234375 -0.75,1.234375 -0.28125,0 -0.296875,-0.265625 -0.296875,-0.453125 0,-0.25 0.015625,-0.3125 0.046875,-0.484375 z m -2.0625,5.625 C 3.015625,-1 3.015625,-0.984375 2.875,-0.8125 2.4375,-0.265625 2.03125,-0.109375 1.75,-0.109375 c -0.5,0 -0.640625,-0.546875 -0.640625,-0.9375 0,-0.5 0.3125,-1.71875 0.546875,-2.1875 0.3125,-0.578125 0.75,-0.953125 1.15625,-0.953125 0.640625,0 0.78125,0.8125 0.78125,0.875 0,0.0625 -0.015625,0.125 -0.03125,0.171875 z m 0,0"
                 id="id-c338c4d9-d6bb-48ea-ba86-0676dd1d4945" />
            </g>
            <g
               id="id-9a41472a-e288-44b9-b389-3444782ce13e" />
            <g
               id="id-c7af57df-a19b-42cb-bec0-fbc38e28b3d4">
              <path
                 d="m 5.1875,-1.578125 c 0.109375,0 0.28125,0 0.28125,-0.15625 0,-0.1875 -0.171875,-0.1875 -0.28125,-0.1875 H 1.03125 c -0.109375,0 -0.28125,0 -0.28125,0.171875 0,0.171875 0.15625,0.171875 0.28125,0.171875 z m 0,0"
                 id="id-35d55668-a108-4228-a3c2-a5161262319e" />
            </g>
            <g
               id="id-ada8d057-faa5-4752-b28e-bece7ba49136" />
            <g
               id="id-057e0caf-ae7c-4a1b-ad61-3c6a05b458ab">
              <path
                 d="m 2.328125,-4.4375 c 0,-0.1875 0,-0.1875 -0.203125,-0.1875 -0.453125,0.4375 -1.078125,0.4375 -1.359375,0.4375 v 0.25 c 0.15625,0 0.625,0 1,-0.1875 v 3.546875 c 0,0.234375 0,0.328125 -0.6875,0.328125 H 0.8125 V 0 c 0.125,0 0.984375,-0.03125 1.234375,-0.03125 0.21875,0 1.09375,0.03125 1.25,0.03125 V -0.25 H 3.03125 c -0.703125,0 -0.703125,-0.09375 -0.703125,-0.328125 z m 0,0"
                 id="id-2f08dcd9-43ee-4078-b5dd-da16eae6162a" />
            </g>
          </g>
        </defs>
        <g
           fill="#000000"
           fill-opacity="1"
           id="id-6b52b86f-3cd5-4ce1-91e9-59c31f1574b3"
           transform="translate(-149.118,-126.524)"
           style="fill:#ff00ff">
          <g
             transform="translate(148.712,134.765)"
             id="g53222"
             style="fill:#ff00ff">
            <path
               d="m 5.140625,-6.8125 c 0,0 0,-0.109375 -0.125,-0.109375 -0.15625,0 -1.09375,0.09375 -1.265625,0.109375 -0.078125,0.015625 -0.140625,0.0625 -0.140625,0.1875 0,0.125 0.09375,0.125 0.234375,0.125 0.484375,0 0.5,0.0625 0.5,0.171875 L 4.3125,-6.125 3.71875,-3.765625 C 3.53125,-4.140625 3.25,-4.40625 2.796875,-4.40625 c -1.15625,0 -2.390625,1.46875 -2.390625,2.921875 0,0.9375 0.546875,1.59375 1.3125,1.59375 0.203125,0 0.703125,-0.046875 1.296875,-0.75 0.078125,0.421875 0.4375,0.75 0.90625,0.75 0.359375,0 0.578125,-0.234375 0.75,-0.546875 0.15625,-0.359375 0.296875,-0.96875 0.296875,-0.984375 0,-0.109375 -0.09375,-0.109375 -0.125,-0.109375 -0.09375,0 -0.109375,0.046875 -0.140625,0.1875 -0.171875,0.640625 -0.34375,1.234375 -0.75,1.234375 -0.28125,0 -0.296875,-0.265625 -0.296875,-0.453125 0,-0.25 0.015625,-0.3125 0.046875,-0.484375 z m -2.0625,5.625 C 3.015625,-1 3.015625,-0.984375 2.875,-0.8125 2.4375,-0.265625 2.03125,-0.109375 1.75,-0.109375 c -0.5,0 -0.640625,-0.546875 -0.640625,-0.9375 0,-0.5 0.3125,-1.71875 0.546875,-2.1875 0.3125,-0.578125 0.75,-0.953125 1.15625,-0.953125 0.640625,0 0.78125,0.8125 0.78125,0.875 0,0.0625 -0.015625,0.125 -0.03125,0.171875 z m 0,0"
               id="id-a3971985-2795-4099-a66e-3960463c7584"
               style="fill:#ff00ff" />
          </g>
        </g>
        <g
           fill="#000000"
           fill-opacity="1"
           id="id-f4281b93-2802-4e5e-92a6-ed7aecbf7174"
           transform="translate(-149.118,-126.524)"
           style="fill:#ff00ff">
          <g
             transform="translate(153.898,131.149)"
             id="g53226"
             style="fill:#ff00ff">
            <path
               d="m 5.1875,-1.578125 c 0.109375,0 0.28125,0 0.28125,-0.15625 0,-0.1875 -0.171875,-0.1875 -0.28125,-0.1875 H 1.03125 c -0.109375,0 -0.28125,0 -0.28125,0.171875 0,0.171875 0.15625,0.171875 0.28125,0.171875 z m 0,0"
               id="id-78756f19-15db-4dff-bea8-e94431170225"
               style="fill:#ff00ff" />
          </g>
        </g>
        <g
           fill="#000000"
           fill-opacity="1"
           id="id-0934eb50-d01e-4988-9946-b8defb026224"
           transform="translate(-149.118,-126.524)"
           style="fill:#ff00ff">
          <g
             transform="translate(160.124,131.149)"
             id="g53230"
             style="fill:#ff00ff">
            <path
               d="m 2.328125,-4.4375 c 0,-0.1875 0,-0.1875 -0.203125,-0.1875 -0.453125,0.4375 -1.078125,0.4375 -1.359375,0.4375 v 0.25 c 0.15625,0 0.625,0 1,-0.1875 v 3.546875 c 0,0.234375 0,0.328125 -0.6875,0.328125 H 0.8125 V 0 c 0.125,0 0.984375,-0.03125 1.234375,-0.03125 0.21875,0 1.09375,0.03125 1.25,0.03125 V -0.25 H 3.03125 c -0.703125,0 -0.703125,-0.09375 -0.703125,-0.328125 z m 0,0"
               id="id-d1ceed50-2d82-433f-9b73-111cc46a5367"
               style="fill:#ff00ff" />
          </g>
        </g>
      </g>
      <path
         style="opacity:1;fill:#00ffff;fill-opacity:0.2;stroke:#000000;stroke-width:0.265;stroke-linecap:butt;stroke-linejoin:miter;stroke-dasharray:none;stroke-opacity:1"
         d="m 88.868152,49.242219 c -15.255355,1.894648 -25.114479,13.74053 -18.145748,33.173164 2.106808,5.874932 6.82527,10.30352 13.561623,11.946412 6.656876,1.623508 15.868683,2.077262 20.718643,-1.360929 10.44573,-7.405092 16.79781,-25.085651 11.83767,-31.480578 -5.32411,-6.864183 -11.99686,-14.262136 -27.972188,-12.278069 z"
         id="path98178"
         sodipodi:nodetypes="ssssss" />
      <rect
         style="opacity:1;fill:#cfffff;fill-opacity:1;stroke:none;stroke-width:0.264999;stroke-linecap:round;stroke-dasharray:none;stroke-dashoffset:0;stroke-opacity:1"
         id="rect99732"
         width="2.7719672"
         height="2.3023541"
         x="75.795143"
         y="67.66481" />
      <g
         transform="matrix(0.352778,0,0,0.352778,99.429503,65.700683)"
         ns3:version="1.8.1"
         ns3:texconverter="pdflatex"
         ns3:pdfconverter="inkscape"
         ns3:text="$U$"
         ns3:preamble="/home/satvik/.config/inkscape/extensions/textext/default_packages.tex"
         ns3:scale="1.0"
         ns3:alignment="middle center"
         ns3:stroke-to-path="0"
         ns3:inkscapeversion="1.2"
         ns3:jacobian_sqrt="0.352778"
         id="g102051">
        <defs
           id="id-330c704a-0535-4236-9247-f9bd3371b8d1">
          <g
             id="id-e50b5d14-eb5b-4b26-9d0f-f733edae63fd">
            <g
               id="id-739bfb51-9de3-4793-9dbe-ddefd409aac6" />
            <g
               id="id-84252c7c-25d2-401f-9dbe-e174d3b1e185">
              <path
                 d="M 6.328125,-5.765625 C 6.4375,-6.171875 6.609375,-6.46875 7.40625,-6.5 c 0.046875,0 0.171875,-0.015625 0.171875,-0.203125 0,0 0,-0.109375 -0.125,-0.109375 -0.328125,0 -0.6875,0.03125 -1.015625,0.03125 -0.34375,0 -0.71875,-0.03125 -1.046875,-0.03125 -0.0625,0 -0.171875,0 -0.171875,0.203125 C 5.21875,-6.5 5.3125,-6.5 5.390625,-6.5 c 0.578125,0.015625 0.6875,0.21875 0.6875,0.4375 0,0.03125 -0.03125,0.1875 -0.03125,0.203125 l -0.90625,3.5625 C 4.8125,-0.953125 3.65625,-0.09375 2.65625,-0.09375 c -0.671875,0 -1.203125,-0.4375 -1.203125,-1.296875 0,-0.015625 0,-0.328125 0.109375,-0.765625 L 2.515625,-6.046875 C 2.609375,-6.40625 2.625,-6.5 3.359375,-6.5 c 0.265625,0 0.34375,0 0.34375,-0.203125 0,-0.109375 -0.109375,-0.109375 -0.140625,-0.109375 -0.28125,0 -1,0.03125 -1.28125,0.03125 -0.28125,0 -1,-0.03125 -1.28125,-0.03125 -0.078125,0 -0.1875,0 -0.1875,0.203125 C 0.8125,-6.5 0.890625,-6.5 1.09375,-6.5 c 0.015625,0 0.203125,0 0.375,0.015625 0.171875,0.03125 0.265625,0.03125 0.265625,0.171875 0,0.046875 -0.109375,0.46875 -0.171875,0.703125 l -0.21875,0.875 C 1.25,-4.34375 0.78125,-2.46875 0.734375,-2.265625 0.671875,-2 0.671875,-1.84375 0.671875,-1.6875 c 0,1.203125 0.90625,1.90625 1.953125,1.90625 1.25,0 2.484375,-1.125 2.8125,-2.4375 z m 0,0"
                 id="id-c26a6101-6286-4e76-9fd5-20b01ce2a807" />
            </g>
          </g>
        </defs>
        <g
           fill="#000000"
           fill-opacity="1"
           id="id-32ff585c-6126-4121-b8cd-96834be6f408"
           transform="translate(-149.384,-127.953)">
          <g
             transform="translate(148.712,134.765)"
             id="g102048">
            <path
               d="M 6.328125,-5.765625 C 6.4375,-6.171875 6.609375,-6.46875 7.40625,-6.5 c 0.046875,0 0.171875,-0.015625 0.171875,-0.203125 0,0 0,-0.109375 -0.125,-0.109375 -0.328125,0 -0.6875,0.03125 -1.015625,0.03125 -0.34375,0 -0.71875,-0.03125 -1.046875,-0.03125 -0.0625,0 -0.171875,0 -0.171875,0.203125 C 5.21875,-6.5 5.3125,-6.5 5.390625,-6.5 c 0.578125,0.015625 0.6875,0.21875 0.6875,0.4375 0,0.03125 -0.03125,0.1875 -0.03125,0.203125 l -0.90625,3.5625 C 4.8125,-0.953125 3.65625,-0.09375 2.65625,-0.09375 c -0.671875,0 -1.203125,-0.4375 -1.203125,-1.296875 0,-0.015625 0,-0.328125 0.109375,-0.765625 L 2.515625,-6.046875 C 2.609375,-6.40625 2.625,-6.5 3.359375,-6.5 c 0.265625,0 0.34375,0 0.34375,-0.203125 0,-0.109375 -0.109375,-0.109375 -0.140625,-0.109375 -0.28125,0 -1,0.03125 -1.28125,0.03125 -0.28125,0 -1,-0.03125 -1.28125,-0.03125 -0.078125,0 -0.1875,0 -0.1875,0.203125 C 0.8125,-6.5 0.890625,-6.5 1.09375,-6.5 c 0.015625,0 0.203125,0 0.375,0.015625 0.171875,0.03125 0.265625,0.03125 0.265625,0.171875 0,0.046875 -0.109375,0.46875 -0.171875,0.703125 l -0.21875,0.875 C 1.25,-4.34375 0.78125,-2.46875 0.734375,-2.265625 0.671875,-2 0.671875,-1.84375 0.671875,-1.6875 c 0,1.203125 0.90625,1.90625 1.953125,1.90625 1.25,0 2.484375,-1.125 2.8125,-2.4375 z m 0,0"
               id="id-36ed93e3-6a4d-42df-9f9a-4225a81ed76b" />
          </g>
        </g>
      </g>
      <g
         transform="matrix(0.352778 0 0 0.352778 77.5719 41.3462)"
         ns3:version="1.8.1"
         ns3:texconverter="pdflatex"
         ns3:pdfconverter="inkscape"
         ns3:text="$V$"
         ns3:preamble="/home/satvik/.config/inkscape/extensions/textext/default_packages.tex"
         ns3:scale="1.0"
         ns3:alignment="middle center"
         ns3:stroke-to-path="0"
         ns3:inkscapeversion="1.2"
         ns3:jacobian_sqrt="0.352778"
         id="g103165">
        <defs
           id="id-b271357f-a324-490b-aa6e-d18ef609804b">
          <g
             id="id-7dadffbf-3bb8-4189-8dc5-d8dd560d0c7e">
            <g
               id="id-a49cfe4c-65b3-4703-a6d6-6b0cecdd549e" />
            <g
               id="id-40a3bbd5-519b-408a-ba15-70fd88bce068">
              <path
                 d="M 6.265625,-5.671875 C 6.75,-6.453125 7.171875,-6.484375 7.53125,-6.5 c 0.125,-0.015625 0.140625,-0.171875 0.140625,-0.1875 0,-0.078125 -0.0625,-0.125 -0.140625,-0.125 -0.25,0 -0.546875,0.03125 -0.8125,0.03125 -0.328125,0 -0.671875,-0.03125 -0.984375,-0.03125 -0.0625,0 -0.1875,0 -0.1875,0.1875 0,0.109375 0.078125,0.125 0.15625,0.125 0.265625,0.015625 0.453125,0.125 0.453125,0.328125 0,0.15625 -0.140625,0.375 -0.140625,0.375 l -3.0625,4.875 -0.6875,-5.28125 C 2.265625,-6.375 2.5,-6.5 2.953125,-6.5 c 0.140625,0 0.25,0 0.25,-0.203125 0,-0.078125 -0.078125,-0.109375 -0.125,-0.109375 -0.40625,0 -0.828125,0.03125 -1.25,0.03125 -0.171875,0 -0.359375,0 -0.546875,0 -0.171875,0 -0.359375,-0.03125 -0.53125,-0.03125 -0.078125,0 -0.1875,0 -0.1875,0.1875 0,0.125 0.078125,0.125 0.25,0.125 0.546875,0 0.5625,0.09375 0.59375,0.34375 L 2.1875,-0.015625 C 2.21875,0.1875 2.265625,0.21875 2.390625,0.21875 c 0.15625,0 0.203125,-0.046875 0.28125,-0.171875 z m 0,0"
                 id="id-23d64264-4721-450e-8298-7f6716328904" />
            </g>
          </g>
        </defs>
        <g
           fill="#000000"
           fill-opacity="1"
           id="id-380cd91c-4c10-46d1-b261-cbdc330576ab"
           transform="translate(-149.275,-127.953)">
          <g
             transform="translate(148.712,134.765)"
             id="g103162">
            <path
               d="M 6.265625,-5.671875 C 6.75,-6.453125 7.171875,-6.484375 7.53125,-6.5 c 0.125,-0.015625 0.140625,-0.171875 0.140625,-0.1875 0,-0.078125 -0.0625,-0.125 -0.140625,-0.125 -0.25,0 -0.546875,0.03125 -0.8125,0.03125 -0.328125,0 -0.671875,-0.03125 -0.984375,-0.03125 -0.0625,0 -0.1875,0 -0.1875,0.1875 0,0.109375 0.078125,0.125 0.15625,0.125 0.265625,0.015625 0.453125,0.125 0.453125,0.328125 0,0.15625 -0.140625,0.375 -0.140625,0.375 l -3.0625,4.875 -0.6875,-5.28125 C 2.265625,-6.375 2.5,-6.5 2.953125,-6.5 c 0.140625,0 0.25,0 0.25,-0.203125 0,-0.078125 -0.078125,-0.109375 -0.125,-0.109375 -0.40625,0 -0.828125,0.03125 -1.25,0.03125 -0.171875,0 -0.359375,0 -0.546875,0 -0.171875,0 -0.359375,-0.03125 -0.53125,-0.03125 -0.078125,0 -0.1875,0 -0.1875,0.1875 0,0.125 0.078125,0.125 0.25,0.125 0.546875,0 0.5625,0.09375 0.59375,0.34375 L 2.1875,-0.015625 C 2.21875,0.1875 2.265625,0.21875 2.390625,0.21875 c 0.15625,0 0.203125,-0.046875 0.28125,-0.171875 z m 0,0"
               id="id-e50aaf61-47da-4204-a34f-18438ea1027c" />
          </g>
        </g>
      </g>
      <g
         transform="matrix(0.352778,0,0,0.352778,77.293859,53.881961)"
         ns3:version="1.8.1"
         ns3:texconverter="pdflatex"
         ns3:pdfconverter="inkscape"
         ns3:text="$U\\cap V$"
         ns3:preamble="/home/satvik/.config/inkscape/extensions/textext/default_packages.tex"
         ns3:scale="1.0"
         ns3:alignment="middle center"
         ns3:stroke-to-path="0"
         ns3:inkscapeversion="1.2"
         ns3:jacobian_sqrt="0.352778"
         id="g104129">
        <defs
           id="id-1ef84447-f2b8-4dda-805c-3b99ccd23060">
          <g
             id="id-878f4503-3cd5-4a46-90ca-1d531ff9af9b">
            <g
               id="id-c7c617a0-4a1c-4f55-9ab8-630bcc1e9c0d" />
            <g
               id="id-b08c006a-553c-47cd-80ae-e415a9986a3c">
              <path
                 d="M 6.328125,-5.765625 C 6.4375,-6.171875 6.609375,-6.46875 7.40625,-6.5 c 0.046875,0 0.171875,-0.015625 0.171875,-0.203125 0,0 0,-0.109375 -0.125,-0.109375 -0.328125,0 -0.6875,0.03125 -1.015625,0.03125 -0.34375,0 -0.71875,-0.03125 -1.046875,-0.03125 -0.0625,0 -0.171875,0 -0.171875,0.203125 C 5.21875,-6.5 5.3125,-6.5 5.390625,-6.5 c 0.578125,0.015625 0.6875,0.21875 0.6875,0.4375 0,0.03125 -0.03125,0.1875 -0.03125,0.203125 l -0.90625,3.5625 C 4.8125,-0.953125 3.65625,-0.09375 2.65625,-0.09375 c -0.671875,0 -1.203125,-0.4375 -1.203125,-1.296875 0,-0.015625 0,-0.328125 0.109375,-0.765625 L 2.515625,-6.046875 C 2.609375,-6.40625 2.625,-6.5 3.359375,-6.5 c 0.265625,0 0.34375,0 0.34375,-0.203125 0,-0.109375 -0.109375,-0.109375 -0.140625,-0.109375 -0.28125,0 -1,0.03125 -1.28125,0.03125 -0.28125,0 -1,-0.03125 -1.28125,-0.03125 -0.078125,0 -0.1875,0 -0.1875,0.203125 C 0.8125,-6.5 0.890625,-6.5 1.09375,-6.5 c 0.015625,0 0.203125,0 0.375,0.015625 0.171875,0.03125 0.265625,0.03125 0.265625,0.171875 0,0.046875 -0.109375,0.46875 -0.171875,0.703125 l -0.21875,0.875 C 1.25,-4.34375 0.78125,-2.46875 0.734375,-2.265625 0.671875,-2 0.671875,-1.84375 0.671875,-1.6875 c 0,1.203125 0.90625,1.90625 1.953125,1.90625 1.25,0 2.484375,-1.125 2.8125,-2.4375 z m 0,0"
                 id="id-9e0cdb29-1ef8-499c-bf0c-adfaa1b84b80" />
            </g>
            <g
               id="id-66a71da7-98f2-42d1-8073-2b3b6467adf8">
              <path
                 d="M 6.265625,-5.671875 C 6.75,-6.453125 7.171875,-6.484375 7.53125,-6.5 c 0.125,-0.015625 0.140625,-0.171875 0.140625,-0.1875 0,-0.078125 -0.0625,-0.125 -0.140625,-0.125 -0.25,0 -0.546875,0.03125 -0.8125,0.03125 -0.328125,0 -0.671875,-0.03125 -0.984375,-0.03125 -0.0625,0 -0.1875,0 -0.1875,0.1875 0,0.109375 0.078125,0.125 0.15625,0.125 0.265625,0.015625 0.453125,0.125 0.453125,0.328125 0,0.15625 -0.140625,0.375 -0.140625,0.375 l -3.0625,4.875 -0.6875,-5.28125 C 2.265625,-6.375 2.5,-6.5 2.953125,-6.5 c 0.140625,0 0.25,0 0.25,-0.203125 0,-0.078125 -0.078125,-0.109375 -0.125,-0.109375 -0.40625,0 -0.828125,0.03125 -1.25,0.03125 -0.171875,0 -0.359375,0 -0.546875,0 -0.171875,0 -0.359375,-0.03125 -0.53125,-0.03125 -0.078125,0 -0.1875,0 -0.1875,0.1875 0,0.125 0.078125,0.125 0.25,0.125 0.546875,0 0.5625,0.09375 0.59375,0.34375 L 2.1875,-0.015625 C 2.21875,0.1875 2.265625,0.21875 2.390625,0.21875 c 0.15625,0 0.203125,-0.046875 0.28125,-0.171875 z m 0,0"
                 id="id-31366961-fab5-4a2f-907c-c9dbc23766ad" />
            </g>
            <g
               id="id-8f580a36-830e-4feb-baa7-a77f14ce73e9" />
            <g
               id="id-b4b0de75-ff30-415e-ab9c-a64c7702dcc1">
              <path
                 d="m 6.09375,-3.78125 c 0,-1.515625 -1.53125,-2.1875 -2.78125,-2.1875 -1.28125,0 -2.765625,0.703125 -2.765625,2.171875 v 3.65625 c 0,0.1875 0,0.359375 0.203125,0.359375 0.203125,0 0.203125,-0.171875 0.203125,-0.359375 V -3.75 c 0,-1.5 1.625,-1.8125 2.359375,-1.8125 0.453125,0 1.078125,0.09375 1.609375,0.421875 C 5.6875,-4.640625 5.6875,-4 5.6875,-3.734375 v 3.59375 c 0,0.1875 0,0.359375 0.203125,0.359375 0.203125,0 0.203125,-0.171875 0.203125,-0.359375 z m 0,0"
                 id="id-5a7372d5-8fa2-487f-bac1-95ca6691affa" />
            </g>
          </g>
        </defs>
        <g
           fill="#000000"
           fill-opacity="1"
           id="id-ab5a06a7-fc89-45f1-baa3-e7976f94a7d1"
           transform="translate(-149.384,-127.953)">
          <g
             transform="translate(148.712,134.765)"
             id="g104118">
            <path
               d="M 6.328125,-5.765625 C 6.4375,-6.171875 6.609375,-6.46875 7.40625,-6.5 c 0.046875,0 0.171875,-0.015625 0.171875,-0.203125 0,0 0,-0.109375 -0.125,-0.109375 -0.328125,0 -0.6875,0.03125 -1.015625,0.03125 -0.34375,0 -0.71875,-0.03125 -1.046875,-0.03125 -0.0625,0 -0.171875,0 -0.171875,0.203125 C 5.21875,-6.5 5.3125,-6.5 5.390625,-6.5 c 0.578125,0.015625 0.6875,0.21875 0.6875,0.4375 0,0.03125 -0.03125,0.1875 -0.03125,0.203125 l -0.90625,3.5625 C 4.8125,-0.953125 3.65625,-0.09375 2.65625,-0.09375 c -0.671875,0 -1.203125,-0.4375 -1.203125,-1.296875 0,-0.015625 0,-0.328125 0.109375,-0.765625 L 2.515625,-6.046875 C 2.609375,-6.40625 2.625,-6.5 3.359375,-6.5 c 0.265625,0 0.34375,0 0.34375,-0.203125 0,-0.109375 -0.109375,-0.109375 -0.140625,-0.109375 -0.28125,0 -1,0.03125 -1.28125,0.03125 -0.28125,0 -1,-0.03125 -1.28125,-0.03125 -0.078125,0 -0.1875,0 -0.1875,0.203125 C 0.8125,-6.5 0.890625,-6.5 1.09375,-6.5 c 0.015625,0 0.203125,0 0.375,0.015625 0.171875,0.03125 0.265625,0.03125 0.265625,0.171875 0,0.046875 -0.109375,0.46875 -0.171875,0.703125 l -0.21875,0.875 C 1.25,-4.34375 0.78125,-2.46875 0.734375,-2.265625 0.671875,-2 0.671875,-1.84375 0.671875,-1.6875 c 0,1.203125 0.90625,1.90625 1.953125,1.90625 1.25,0 2.484375,-1.125 2.8125,-2.4375 z m 0,0"
               id="id-87f2b468-92f9-4e24-b185-474c748061d1" />
          </g>
        </g>
        <g
           fill="#000000"
           fill-opacity="1"
           id="id-09e85368-5d34-4833-8d42-cfa3d40fdc82"
           transform="translate(-149.384,-127.953)">
          <g
             transform="translate(158.815,134.765)"
             id="g104122">
            <path
               d="m 6.09375,-3.78125 c 0,-1.515625 -1.53125,-2.1875 -2.78125,-2.1875 -1.28125,0 -2.765625,0.703125 -2.765625,2.171875 v 3.65625 c 0,0.1875 0,0.359375 0.203125,0.359375 0.203125,0 0.203125,-0.171875 0.203125,-0.359375 V -3.75 c 0,-1.5 1.625,-1.8125 2.359375,-1.8125 0.453125,0 1.078125,0.09375 1.609375,0.421875 C 5.6875,-4.640625 5.6875,-4 5.6875,-3.734375 v 3.59375 c 0,0.1875 0,0.359375 0.203125,0.359375 0.203125,0 0.203125,-0.171875 0.203125,-0.359375 z m 0,0"
               id="id-cd7cf7f0-8d46-4460-ba60-278c3c2d76a5" />
          </g>
        </g>
        <g
           fill="#000000"
           fill-opacity="1"
           id="id-6647445b-582f-4753-9eec-68b012b6810e"
           transform="translate(-149.384,-127.953)">
          <g
             transform="translate(167.67,134.765)"
             id="g104126">
            <path
               d="M 6.265625,-5.671875 C 6.75,-6.453125 7.171875,-6.484375 7.53125,-6.5 c 0.125,-0.015625 0.140625,-0.171875 0.140625,-0.1875 0,-0.078125 -0.0625,-0.125 -0.140625,-0.125 -0.25,0 -0.546875,0.03125 -0.8125,0.03125 -0.328125,0 -0.671875,-0.03125 -0.984375,-0.03125 -0.0625,0 -0.1875,0 -0.1875,0.1875 0,0.109375 0.078125,0.125 0.15625,0.125 0.265625,0.015625 0.453125,0.125 0.453125,0.328125 0,0.15625 -0.140625,0.375 -0.140625,0.375 l -3.0625,4.875 -0.6875,-5.28125 C 2.265625,-6.375 2.5,-6.5 2.953125,-6.5 c 0.140625,0 0.25,0 0.25,-0.203125 0,-0.078125 -0.078125,-0.109375 -0.125,-0.109375 -0.40625,0 -0.828125,0.03125 -1.25,0.03125 -0.171875,0 -0.359375,0 -0.546875,0 -0.171875,0 -0.359375,-0.03125 -0.53125,-0.03125 -0.078125,0 -0.1875,0 -0.1875,0.1875 0,0.125 0.078125,0.125 0.25,0.125 0.546875,0 0.5625,0.09375 0.59375,0.34375 L 2.1875,-0.015625 C 2.21875,0.1875 2.265625,0.21875 2.390625,0.21875 c 0.15625,0 0.203125,-0.046875 0.28125,-0.171875 z m 0,0"
               id="id-a37f8718-1d89-4842-89bc-4e66e748285e" />
          </g>
        </g>
      </g>
    </g>
  </g>
</svg>
